<svg width="1024" height="1024" viewBox="0 0 1024 1024" xmlns="http://www.w3.org/2000/svg" style="display:block" preserveAspectRatio="xMidYMid meet"><rect x="0" y="0" width="1024" height="1024" fill="#DFFF06"></rect><svg x="110" y="443" width="153" height="153" xmlns="http://www.w3.org/2000/svg" style="display:block" preserveAspectRatio="none"><svg preserveAspectRatio="none" data-bbox="19.063 39.615 121.874 80.769" xmlns="http://www.w3.org/2000/svg" width="153" height="153" viewBox="19.063 39.615 121.874 80.769" data-type="color">
    <g id="svg-group-72653cfc-e9af-42ab-9353-3546b5a9b5d9">
        <path fill="rgba(26, 26, 26, 1)" d="M99.915 43.052c-3.955 0-7.847.829-11.427 2.381-4.413-3.399-9.892-5.317-15.733-5.317-10.658 0-19.83 6.487-23.776 15.719-14.84 2.106-26.288 14.895-26.288 30.308 0 16.88 13.733 30.613 30.613 30.613h61.659c14.046 0 25.475-11.428 25.475-25.475a25.452 25.452 0 00-11.816-21.504c-1.056-14.914-13.528-26.725-28.707-26.725z" data-color="1"/>
        <path fill="rgba(26, 26, 26, 1)" d="M114.962 117.256H53.304c-17.156 0-31.113-13.957-31.113-31.113 0-15.305 11.348-28.48 26.44-30.763a26.335 26.335 0 0124.124-15.765c5.787 0 11.245 1.812 15.804 5.243a29.06 29.06 0 0111.356-2.307c15.214 0 27.984 11.812 29.185 26.939 7.417 4.806 11.837 12.932 11.837 21.79 0 14.324-11.652 25.976-25.975 25.976zm-42.207-76.64a25.338 25.338 0 00-23.316 15.415.502.502 0 01-.39.299c-14.742 2.093-25.858 14.91-25.858 29.814 0 16.604 13.509 30.113 30.113 30.113h61.658c13.771 0 24.975-11.204 24.975-24.975 0-8.598-4.331-16.479-11.584-21.082a.498.498 0 01-.231-.387c-1.041-14.726-13.431-26.261-28.206-26.261-3.868 0-7.646.787-11.229 2.34a.499.499 0 01-.504-.063c-4.429-3.411-9.764-5.213-15.428-5.213z" data-color="1"/>
        <path fill="rgba(255, 223, 186, 1)" d="M50.176 119.884c-16.88 0-30.613-13.733-30.613-30.613 0-15.413 11.448-28.202 26.288-30.309 3.946-9.232 13.118-15.719 23.776-15.719 5.841 0 11.319 1.918 15.733 5.317a28.774 28.774 0 0111.427-2.381c15.179 0 27.651 11.811 28.706 26.726a25.45 25.45 0 0111.816 21.504c0 14.047-11.428 25.475-25.475 25.475H50.176z" data-color="2"/>
        <path fill="rgba(26, 26, 26, 1)" d="M111.834 120.384H50.175c-17.155 0-31.112-13.957-31.112-31.113 0-15.305 11.348-28.48 26.44-30.763a26.335 26.335 0 0124.124-15.765c5.787 0 11.245 1.812 15.804 5.243a29.065 29.065 0 0111.355-2.306c15.214 0 27.985 11.812 29.186 26.939 7.417 4.807 11.837 12.933 11.837 21.79 0 14.323-11.652 25.975-25.975 25.975zm-42.207-76.64a25.338 25.338 0 00-23.316 15.415.502.502 0 01-.39.299c-14.742 2.093-25.858 14.91-25.858 29.814 0 16.604 13.509 30.113 30.112 30.113h61.659c13.771 0 24.975-11.204 24.975-24.975 0-8.597-4.331-16.478-11.584-21.081a.498.498 0 01-.231-.387c-1.041-14.726-13.432-26.261-28.207-26.261-3.868 0-7.646.787-11.228 2.339a.503.503 0 01-.504-.063c-4.429-3.411-9.763-5.213-15.428-5.213z" data-color="1"/>
        <path fill="rgba(26, 26, 26, 1)" d="M126.682 108.681a.498.498 0 01-.366-.84 19.69 19.69 0 005.279-13.432 19.834 19.834 0 00-4.747-12.848.5.5 0 11.76-.65 20.85 20.85 0 014.988 13.499c0 5.247-1.97 10.259-5.547 14.112a.504.504 0 01-.367.159z" data-color="1"/>
        <path fill="rgba(26, 26, 26, 1)" d="M125.769 80.201a.5.5 0 01-.343-.136l-.153-.144a.5.5 0 11.682-.731l.157.147a.5.5 0 01-.343.864z" data-color="1"/>
        <path fill="rgba(26, 26, 26, 1)" d="M123.889 78.626a.502.502 0 01-.298-.098 20.14 20.14 0 00-1.342-.911.5.5 0 01.527-.85c.481.298.956.62 1.41.957a.499.499 0 01-.297.902z" data-color="1"/>
        <path fill="rgba(26, 26, 26, 1)" d="M120.328 76.518h-.022a.5.5 0 01-.477-.521c.015-.346.022-.691.022-1.038 0-12.718-10.347-23.064-23.064-23.064a23.09 23.09 0 00-11.981 3.369.5.5 0 01-.623-.083 19.819 19.819 0 00-5.861-4.266.5.5 0 01.432-.903 20.825 20.825 0 015.877 4.192 24.087 24.087 0 0112.157-3.309c13.27 0 24.064 10.795 24.064 24.064 0 .361-.008.722-.024 1.082a.501.501 0 01-.5.477z" data-color="1"/>
        <path fill="rgba(26, 26, 26, 1)" d="M76.05 49.969a.488.488 0 01-.155-.025c-.23-.075-.463-.146-.696-.212a.5.5 0 11.275-.962c.245.07.489.145.731.224a.5.5 0 01-.155.975z" data-color="1"/>
        <path fill="rgba(26, 26, 26, 1)" d="M72.409 49.142a.502.502 0 01-.067-.004 20.573 20.573 0 00-2.714-.18.5.5 0 010-1c.954 0 1.912.063 2.847.188a.5.5 0 01-.066.996z" data-color="1"/>
        <path fill="rgba(186, 225, 255, 1)" d="M114.539 79.618c.39-1.488.599-3.049.599-4.66 0-10.135-8.216-18.351-18.351-18.351-5.245 0-9.971 2.204-13.316 5.731-2.504-5.127-7.753-8.667-13.843-8.667-8.513 0-15.415 6.901-15.415 15.415 0 .138.017.271.021.408a20.244 20.244 0 00-4.058-.408c-11.148 0-20.186 9.037-20.186 20.186s9.037 20.186 20.186 20.186h61.658c8.311 0 15.048-6.737 15.048-15.048 0-7.386-5.325-13.517-12.343-14.792z" data-color="3"/>
        <path fill="rgba(26, 26, 26, 1)" d="M111.834 109.957H50.176c-11.406 0-20.687-9.279-20.687-20.686s9.28-20.686 20.687-20.686c1.187 0 2.374.102 3.538.302.106-8.685 7.204-15.717 15.913-15.717 5.887 0 11.178 3.171 13.972 8.324 3.544-3.48 8.199-5.388 13.188-5.388 10.395 0 18.851 8.457 18.851 18.851 0 1.44-.164 2.875-.488 4.271a15.527 15.527 0 0112.233 15.18c-.001 8.574-6.975 15.549-15.549 15.549zM50.176 69.585c-10.855 0-19.687 8.831-19.687 19.686 0 10.854 8.831 19.686 19.687 19.686h61.658c8.021 0 14.548-6.526 14.548-14.547a14.527 14.527 0 00-11.934-14.3.498.498 0 01-.394-.618c.386-1.476.582-3.001.582-4.533 0-9.843-8.008-17.851-17.851-17.851-4.944 0-9.544 1.98-12.952 5.575a.497.497 0 01-.812-.125c-2.526-5.173-7.659-8.387-13.395-8.387-8.224 0-14.914 6.69-14.914 14.915 0 .066.005.132.01.197l.011.197a.502.502 0 01-.6.504 19.85 19.85 0 00-3.957-.399z" data-color="1"/>
    </g>
</svg>
</svg><svg x="304" y="446" width="634" height="158" xmlns="http://www.w3.org/2000/svg" style="display:block" preserveAspectRatio="none"><g><path d="M9.14 108.63L9.14 22.73L20.80 22.73L65.92 90.18L65.92 22.73L76.82 22.73L76.82 108.63L65.16 108.63L20.04 41.13L20.04 108.63ZM137.17 88.59L148.07 89.94Q145.49 99.49 138.52 104.77Q131.54 110.04 120.70 110.04Q107.05 110.04 99.05 101.63Q91.05 93.22 91.05 78.05Q91.05 62.34 99.14 53.67Q107.23 45.00 120.12 45.00Q132.60 45.00 140.51 53.50Q148.42 61.99 148.42 77.40Q148.42 78.34 148.36 80.21L101.95 80.21Q102.54 90.47 107.75 95.92Q112.97 101.37 120.76 101.37Q126.56 101.37 130.66 98.32Q134.77 95.27 137.17 88.59ZM102.54 71.54L137.29 71.54Q136.58 63.69 133.30 59.77Q128.26 53.67 120.23 53.67Q112.97 53.67 108.02 58.54Q103.07 63.40 102.54 71.54ZM154.28 108.63L177.01 76.29L155.98 46.41L169.16 46.41L178.71 61.00Q181.41 65.16 183.05 67.97Q185.63 64.10 187.79 61.11L198.28 46.41L210.88 46.41L189.38 75.70L212.52 108.63L199.57 108.63L186.80 89.30L183.40 84.08L167.05 108.63ZM261.91 100.96Q256.05 105.94 250.63 107.99Q245.21 110.04 239.00 110.04Q228.75 110.04 223.24 105.03Q217.73 100.02 217.73 92.23Q217.73 87.66 219.81 83.88Q221.89 80.10 225.26 77.81Q228.63 75.53 232.85 74.36Q235.96 73.54 242.23 72.77Q255.00 71.25 261.04 69.14Q261.09 66.97 261.09 66.39Q261.09 59.94 258.11 57.30Q254.06 53.73 246.09 53.73Q238.65 53.73 235.11 56.34Q231.56 58.95 229.86 65.57L219.55 64.16Q220.96 57.54 224.18 53.47Q227.40 49.39 233.50 47.20Q239.59 45.00 247.62 45.00Q255.59 45.00 260.57 46.88Q265.55 48.75 267.89 51.59Q270.23 54.43 271.17 58.77Q271.70 61.46 271.70 68.50L271.70 82.56Q271.70 97.27 272.37 101.16Q273.05 105.06 275.04 108.63L264.02 108.63Q262.38 105.35 261.91 100.96ZM261.04 77.40Q255.29 79.75 243.81 81.39Q237.30 82.32 234.61 83.50Q231.91 84.67 230.45 86.92Q228.98 89.18 228.98 91.93Q228.98 96.15 232.18 98.96Q235.37 101.78 241.52 101.78Q247.62 101.78 252.36 99.11Q257.11 96.45 259.34 91.82Q261.04 88.24 261.04 81.27Z" transform="translate(0.00, 12.61)" fill="#3151f3" /><path d="M279.96 108.63L312.95 22.73L325.20 22.73L360.35 108.63L347.40 108.63L337.38 82.62L301.46 82.62L292.03 108.63ZM304.75 73.36L333.87 73.36L324.90 49.57Q320.80 38.73 318.81 31.76Q317.17 40.02 314.18 48.16ZM371.37 108.63L371.37 22.73L382.73 22.73L382.73 108.63Z" transform="translate(0.00, 12.61)" fill="#000000" /></g></svg></svg>